<svg width="50" height="50" viewBox="0 0 50 50" fill="none" xmlns="http://www.w3.org/2000/svg">
<g clip-path="url(#clip0_16_46)">
<path fill-rule="evenodd" clip-rule="evenodd" d="M22.0544 5.20822C22.8358 4.4271 23.8954 3.98828 25.0002 3.98828C26.1051 3.98828 27.1647 4.4271 27.9461 5.20822L31.3461 8.60822C31.7919 7.98322 32.2211 7.34989 32.6419 6.72281C33.4377 5.52697 34.2002 3.75197 35.9732 4.24364C36.412 4.36522 36.7989 4.62721 37.0746 4.98953C37.3504 5.35185 37.4999 5.79455 37.5002 6.24989V18.7499C37.4999 21.704 36.4536 24.5626 34.5469 26.819C32.6402 29.0753 29.9962 30.5838 27.0836 31.077V39.4103C29.0666 39.0742 30.9393 38.2652 32.5433 37.0518C34.1473 35.8383 35.4353 34.2562 36.2982 32.4395C36.4155 32.1923 36.5804 31.9706 36.7835 31.7872C36.9865 31.6037 37.2237 31.4621 37.4814 31.3703C37.7392 31.2785 38.0126 31.2383 38.2858 31.2522C38.5591 31.266 38.827 31.3336 39.0742 31.4509C39.3214 31.5683 39.543 31.7332 39.7265 31.9362C39.9099 32.1393 40.0516 32.3764 40.1434 32.6342C40.2352 32.892 40.2753 33.1653 40.2615 33.4386C40.2476 33.7119 40.1801 33.9798 40.0627 34.227C38.8621 36.757 37.0438 38.9441 34.7755 40.5865C32.5072 42.2289 29.862 43.2738 27.0836 43.6249C27.0836 44.8041 26.2357 45.8353 25.0002 45.8353C23.7648 45.8353 22.9169 44.8041 22.9169 43.6228C20.1389 43.2721 17.494 42.2279 15.2257 40.5862C12.9574 38.9445 11.1389 36.7583 9.93774 34.2291C9.7007 33.7298 9.67169 33.1569 9.85707 32.6363C10.0425 32.1157 10.4271 31.6901 10.9263 31.453C11.4255 31.216 11.9984 31.187 12.519 31.3724C13.0396 31.5577 13.4653 31.9423 13.7023 32.4416C14.5654 34.2579 15.8535 35.8396 17.4575 37.0527C19.0615 38.2657 20.9341 39.0744 22.9169 39.4103V31.077C20.0043 30.5838 17.3603 29.0753 15.4536 26.819C13.5469 24.5626 12.5006 21.704 12.5002 18.7499V6.24989C12.5001 5.79419 12.6494 5.35102 12.9252 4.98828C13.201 4.62553 13.5882 4.36323 14.0273 4.24156C15.7898 3.75406 16.569 5.53531 17.3607 6.72072C17.7773 7.34989 18.2086 7.98322 18.6544 8.60822L22.0544 5.20822ZM21.2877 11.8666C22.1461 12.777 23.6502 14.5832 25.0002 14.5832C26.3502 14.5832 27.8544 12.777 28.7127 11.8666L25.0002 8.15406L21.2877 11.8666Z" fill="black"/>
</g>
<defs>
<clipPath id="clip0_16_46">
<rect width="50" height="50" fill="white"/>
</clipPath>
</defs>
</svg>
